<svg width="24" height="24" viewBox="0 0 24 24" fill="none" xmlns="http://www.w3.org/2000/svg">
<path d="M7.05682 0C3.18324 0 0 3.17897 0 7.05682V16.9432C0 20.8168 3.17897 24 7.05682 24H16.9432C20.8168 24 24 20.821 24 16.9432V7.05682C24 3.18324 20.821 0 16.9432 0H7.05682ZM7.05682 2.18182H16.9432C19.6406 2.18182 21.8182 4.35937 21.8182 7.05682V16.9432C21.8182 19.6406 19.6406 21.8182 16.9432 21.8182H7.05682C4.35937 21.8182 2.18182 19.6406 2.18182 16.9432V7.05682C2.18182 4.35937 4.35937 2.18182 7.05682 2.18182ZM18.4432 4.56818C17.8935 4.56818 17.4545 5.0071 17.4545 5.55682C17.4545 6.10654 17.8935 6.54545 18.4432 6.54545C18.9929 6.54545 19.4318 6.10654 19.4318 5.55682C19.4318 5.0071 18.9929 4.56818 18.4432 4.56818ZM12 5.45455C8.39915 5.45455 5.45455 8.39915 5.45455 12C5.45455 15.6009 8.39915 18.5455 12 18.5455C15.6009 18.5455 18.5455 15.6009 18.5455 12C18.5455 8.39915 15.6009 5.45455 12 5.45455ZM12 7.63636C14.4247 7.63636 16.3636 9.57528 16.3636 12C16.3636 14.4247 14.4247 16.3636 12 16.3636C9.57528 16.3636 7.63636 14.4247 7.63636 12C7.63636 9.57528 9.57528 7.63636 12 7.63636Z" fill="#2C2C2C"/>
</svg>
