<svg width="24" height="24" viewBox="0 0 24 24" fill="none" xmlns="http://www.w3.org/2000/svg">
<path d="M22.2235 0.00219557C21.9133 0.0182618 21.6212 0.118637 21.3615 0.23107H21.3579C21.0946 0.347511 19.8432 0.933738 17.9425 1.82112C16.0418 2.71251 13.5749 3.86891 11.1261 5.01728C6.23556 7.31 1.42799 9.56658 1.42799 9.56658L1.48569 9.54248C1.48569 9.54248 1.15389 9.66294 0.807662 9.92795C0.630936 10.0564 0.436188 10.2331 0.266674 10.5102C0.0971681 10.7872 -0.0398841 11.2128 0.0106102 11.6505C0.0935579 12.3933 0.526347 12.839 0.836514 13.084C1.15028 13.3329 1.44963 13.4493 1.44963 13.4493H1.45684L5.96505 15.1398C6.16702 15.8625 7.33916 20.1508 7.62047 21.1386C7.78638 21.7288 7.94867 22.0982 8.15064 22.3793C8.24802 22.5239 8.36343 22.6443 8.50048 22.7407C8.55457 22.7768 8.61228 22.8049 8.66998 22.829C8.68802 22.8411 8.70605 22.8451 8.72769 22.8491L8.68081 22.837C8.69524 22.8411 8.70605 22.8531 8.71687 22.8571C8.75293 22.8692 8.77818 22.8732 8.82507 22.8812C9.53917 23.1221 10.1126 22.6283 10.1126 22.6283L10.1451 22.6001L12.8067 19.9019L17.2681 23.7124L17.369 23.7606C18.2995 24.2143 19.2408 23.9613 19.7386 23.5156C20.2399 23.0659 20.4346 22.4917 20.4346 22.4917L20.4671 22.3994L23.915 2.73663C24.0124 2.25078 24.0376 1.79706 23.9294 1.35538C23.8212 0.913694 23.5435 0.500125 23.2081 0.279289C22.8691 0.0544338 22.5337 -0.0138706 22.2235 0.00219557ZM22.1297 2.11022C22.1261 2.17446 22.1369 2.16644 22.1117 2.29091V2.30295L18.6963 21.7609C18.6818 21.789 18.6566 21.8493 18.5881 21.9095C18.5159 21.9738 18.4582 22.0139 18.1589 21.8814L12.7021 17.2237L9.40573 20.5684L10.0982 15.6457C10.0982 15.6457 18.6458 6.77597 19.0136 6.39452C19.3815 6.01308 19.2589 5.93277 19.2589 5.93277C19.2841 5.467 18.7035 5.79625 18.7035 5.79625L7.4618 13.5497L7.45819 13.5297L2.06996 11.51V11.506C2.06635 11.506 2.05914 11.5019 2.05554 11.5019C2.05915 11.5019 2.0844 11.4899 2.0844 11.4899L2.11325 11.4738L2.1421 11.4618C2.1421 11.4618 6.95327 9.20521 11.8438 6.9125C14.2926 5.76413 16.7595 4.60773 18.6566 3.71635C20.5537 2.82897 21.9566 2.1785 22.036 2.14236C22.1117 2.11024 22.0756 2.11022 22.1297 2.11022Z" fill="#2C2C2C"/>
</svg>
