<svg width="24" height="24" viewBox="0 0 24 24" fill="none" xmlns="http://www.w3.org/2000/svg">
<g clip-path="url(#clip0_370_14)">
<path fill-rule="evenodd" clip-rule="evenodd" d="M20.5039 3.48801C18.2461 1.24045 15.2461 0 12.0508 0C5.46484 0 0.10156 5.33506 0.10156 11.8911C0.0976501 13.987 0.64844 16.0324 1.69531 17.8367L0 24L6.33594 22.3435C8.07813 23.2923 10.0469 23.79 12.0469 23.7939H12.0508C18.6367 23.7939 23.9961 18.4589 24 11.8989C24 8.72197 22.7578 5.73558 20.5039 3.48801ZM12.0508 21.7835H12.0469C10.2656 21.7835 8.51561 21.3052 6.99217 20.407L6.62889 20.1931L2.86717 21.173L3.87108 17.5256L3.63671 17.1523C2.64062 15.5775 2.11718 13.7576 2.11718 11.8911C2.11718 6.44329 6.57421 2.01038 12.0547 2.01038C14.707 2.01038 17.1992 3.04084 19.0742 4.90733C20.9492 6.77772 21.9805 9.25859 21.9805 11.8989C21.9805 17.3506 17.5234 21.7835 12.0508 21.7835ZM17.4961 14.3798C17.1992 14.232 15.7305 13.5126 15.457 13.4154C15.1836 13.3143 14.9844 13.2677 14.7851 13.5632C14.5859 13.8626 14.0156 14.5314 13.8398 14.7297C13.668 14.9242 13.4922 14.9514 13.1953 14.8036C12.8945 14.6559 11.9336 14.3409 10.793 13.326C9.90625 12.5405 9.30469 11.5645 9.13281 11.269C8.95703 10.9695 9.11328 10.8101 9.26172 10.6624C9.39844 10.5301 9.5625 10.3163 9.71094 10.1413C9.85938 9.9702 9.91016 9.84577 10.0117 9.64745C10.1094 9.44913 10.0586 9.27415 9.98438 9.12639C9.91016 8.97862 9.31251 7.51265 9.06251 6.9177C8.82032 6.33831 8.57423 6.41997 8.39064 6.4083C8.21877 6.40053 8.01955 6.40053 7.82033 6.40053C7.62111 6.40053 7.29689 6.47441 7.02346 6.77383C6.75002 7.06936 5.98049 7.78873 5.98049 9.25082C5.98049 10.7129 7.0508 12.1283 7.19924 12.3266C7.34768 12.5211 9.30471 15.523 12.3008 16.8101C13.0117 17.1173 13.5664 17.3001 14 17.4362C14.7149 17.6617 15.3672 17.6306 15.8828 17.5567C16.457 17.4712 17.6485 16.8373 17.8985 16.1413C18.1445 15.4491 18.1445 14.8542 18.0703 14.7298C17.9961 14.6053 17.7969 14.5314 17.4961 14.3798Z" fill="#2C2C2C"/>
</g>
<defs>
<clipPath id="clip0_370_14">
<rect width="24" height="24" fill="white"/>
</clipPath>
</defs>
</svg>
